<svg width="20" height="20" viewBox="0 0 20 20" fill="none" xmlns="http://www.w3.org/2000/svg">
<path d="M10.4437 6.03249C10.9123 5.56422 11.5478 5.30127 12.2103 5.30151C12.8727 5.30174 13.508 5.56513 13.9762 6.03374C14.4445 6.50234 14.7075 7.13778 14.7072 7.80025C14.707 8.46272 14.4436 9.09797 13.975 9.56624C13.743 9.7981 13.4675 9.982 13.1644 10.1074C12.8613 10.2328 12.5365 10.2973 12.2085 10.2972C11.546 10.297 10.9108 10.0336 10.4425 9.56499C9.97422 9.09638 9.71128 8.46095 9.71152 7.79848C9.71175 7.13601 9.97514 6.50076 10.4437 6.03249ZM13.0912 6.91749C12.9765 6.79712 12.8389 6.7009 12.6865 6.63448C12.534 6.56806 12.3699 6.53278 12.2036 6.53072C12.0373 6.52866 11.8724 6.55986 11.7183 6.62249C11.5643 6.68511 11.4243 6.7779 11.3067 6.89539C11.189 7.01288 11.096 7.15271 11.0332 7.30665C10.9703 7.46059 10.9389 7.62554 10.9407 7.79181C10.9426 7.95807 10.9776 8.1223 11.0438 8.27482C11.11 8.42735 11.206 8.56511 11.3262 8.67999C11.5618 8.9051 11.876 9.02913 12.2018 9.02555C12.5276 9.02198 12.8391 8.89109 13.0697 8.66087C13.3002 8.43065 13.4315 8.11937 13.4356 7.79358C13.4396 7.46779 13.316 7.15335 13.0912 6.91749ZM11.6862 16.13C11.3366 16.2959 10.9441 16.3495 10.5628 16.2835C10.1814 16.2174 9.82981 16.035 9.55625 15.7612L8.79375 15L7.88 16.525C7.83123 16.6066 7.76446 16.6761 7.68479 16.728C7.60512 16.78 7.51464 16.8131 7.42025 16.8248C7.32586 16.8365 7.23004 16.8265 7.1401 16.7955C7.05016 16.7646 6.96847 16.7135 6.90125 16.6462L3.36375 13.1075C3.29664 13.0404 3.24571 12.9588 3.21481 12.8691C3.18392 12.7793 3.17387 12.6837 3.18544 12.5895C3.197 12.4953 3.22988 12.4049 3.28156 12.3253C3.33325 12.2457 3.40239 12.1789 3.48375 12.13L5.00875 11.215L4.24625 10.4525C3.97293 10.1789 3.79091 9.82745 3.72512 9.44636C3.65933 9.06526 3.71299 8.67315 3.87875 8.32374L2.47875 6.92374C2.36158 6.80653 2.29575 6.64759 2.29575 6.48186C2.29575 6.31614 2.36158 6.15719 2.47875 6.03999L3.80375 4.71499C4.35181 4.16678 5.05615 3.80169 5.82004 3.66986C6.58393 3.53803 7.36989 3.64593 8.07 3.97874L9.24125 2.80749C10.2569 1.7918 11.5312 1.07349 12.926 0.730409C14.3207 0.38733 15.7828 0.432575 17.1537 0.861239C18.105 1.15874 18.85 1.90374 19.1475 2.85499C20.0225 5.64874 19.2725 8.69749 17.2025 10.7675L16.03 11.94C16.3626 12.6401 16.4704 13.4261 16.3386 14.1899C16.2068 14.9537 15.8418 15.6581 15.2937 16.2062L13.9687 17.5312C13.8515 17.6484 13.6926 17.7142 13.5269 17.7142C13.3611 17.7142 13.2022 17.6484 13.085 17.5312L11.685 16.1312L11.6862 16.13ZM16.7812 2.05499C15.6281 1.69404 14.3981 1.65571 13.2248 1.94415C12.0514 2.23259 10.9794 2.8368 10.125 3.69124L9.10625 4.70999L9.10999 4.71499L8.22625 5.59874L8.2225 5.59374L5.57 8.24624L5.57375 8.25124L5.07125 8.75499C4.9821 8.87532 4.93912 9.02366 4.95013 9.17301C4.96114 9.32236 5.02541 9.46279 5.13125 9.56874L10.44 14.8775C10.5463 14.9838 10.6873 15.0482 10.8372 15.059C10.9871 15.0698 11.1359 15.0262 11.2562 14.9362L11.7575 14.435L11.7625 14.44L14.415 11.7875L14.41 11.7825L15.2937 10.8987L15.2987 10.9037L16.3175 9.88374C17.1722 9.0295 17.7766 7.95755 18.0653 6.78416C18.3539 5.61077 18.3158 4.38074 17.955 3.22749C17.8685 2.95165 17.7164 2.70089 17.5117 2.49669C17.3071 2.29249 17.056 2.14093 16.78 2.05499H16.7812ZM12.6462 15.3237L13.5275 16.205L14.41 15.3212C14.7203 15.0114 14.9437 14.6254 15.0578 14.202C15.1719 13.7785 15.1726 13.3326 15.06 12.9087L12.6462 15.3237ZM7.09875 4.94874C6.67512 4.83632 6.22938 4.8372 5.8062 4.95128C5.38301 5.06536 4.99723 5.28863 4.6875 5.59874L3.805 6.48249L4.68625 7.36249L7.09875 4.94999V4.94874ZM7.88375 14.0887L5.92125 12.1262L4.81375 12.7887L7.22 15.1962L7.8825 14.0887H7.88375ZM4.2525 16.6387C4.31445 16.5816 4.36422 16.5126 4.39881 16.4358C4.4334 16.3589 4.4521 16.2759 4.45379 16.1917C4.45547 16.1074 4.44011 16.0237 4.40862 15.9456C4.37713 15.8674 4.33016 15.7965 4.27054 15.7369C4.21092 15.6774 4.13988 15.6305 4.06168 15.5991C3.98349 15.5678 3.89976 15.5525 3.81552 15.5543C3.73129 15.5561 3.64829 15.5749 3.57151 15.6096C3.49473 15.6443 3.42576 15.6942 3.36875 15.7562L1.15875 17.9662C1.09905 18.0239 1.05144 18.0929 1.01868 18.1691C0.985927 18.2454 0.968686 18.3274 0.967965 18.4104C0.967244 18.4933 0.983057 18.5756 1.01448 18.6525C1.04591 18.7293 1.09232 18.7991 1.151 18.8577C1.20968 18.9164 1.27946 18.9628 1.35627 18.9943C1.43309 19.0257 1.51538 19.0415 1.59837 19.0408C1.68136 19.04 1.76337 19.0228 1.83962 18.9901C1.91588 18.9573 1.98484 18.9097 2.0425 18.85L4.2525 16.64V16.6387ZM2.48375 13.9875C2.60092 14.1047 2.66674 14.2636 2.66674 14.4294C2.66674 14.5951 2.60092 14.754 2.48375 14.8712L1.5975 15.7575C1.48014 15.8747 1.32103 15.9405 1.15518 15.9403C0.989327 15.9402 0.830314 15.8742 0.713121 15.7569C0.595929 15.6395 0.530156 15.4804 0.530274 15.3145C0.530391 15.1487 0.596388 14.9897 0.713746 14.8725L1.6 13.9875C1.7172 13.8703 1.87614 13.8045 2.04187 13.8045C2.2076 13.8045 2.36654 13.8703 2.48375 13.9875ZM6.02125 18.4087C6.13055 18.2901 6.18978 18.1339 6.18656 17.9727C6.18333 17.8114 6.1179 17.6576 6.00394 17.5435C5.88997 17.4294 5.73631 17.3638 5.57507 17.3603C5.41383 17.3568 5.25749 17.4159 5.13875 17.525L4.25125 18.4112C4.13405 18.5286 4.06828 18.6877 4.0684 18.8536C4.06852 19.0194 4.13451 19.1784 4.25187 19.2956C4.36923 19.4128 4.52834 19.4786 4.69419 19.4785C4.86004 19.4783 5.01905 19.4123 5.13625 19.295L6.0225 18.4087H6.02125Z" fill="white"/>
</svg>
