<svg width="21" height="21" viewBox="0 0 21 21" fill="none" xmlns="http://www.w3.org/2000/svg">
<path d="M8.67249 0.5C7.25571 0.499887 5.86352 0.870246 4.63407 1.57433C3.40462 2.27841 2.38065 3.29174 1.66376 4.51376C0.946865 5.73579 0.561978 7.12403 0.547284 8.54073C0.53259 9.95744 0.888602 11.3534 1.57999 12.59L0.584993 15.1925C0.502279 15.4088 0.481297 15.6439 0.524389 15.8715C0.567481 16.099 0.672951 16.3102 0.829033 16.4813C0.985115 16.6524 1.18567 16.7768 1.40833 16.8406C1.63098 16.9044 1.86698 16.905 2.08999 16.8425L5.19874 15.9712C6.29993 16.4916 7.504 16.7576 8.7219 16.7498C9.93979 16.742 11.1404 16.4605 12.2348 15.9261C13.3292 15.3917 14.2895 14.6182 15.0446 13.6626C15.7997 12.707 16.3304 11.5939 16.5973 10.4056C16.8642 9.21728 16.8605 7.98416 16.5866 6.79745C16.3126 5.61074 15.7754 4.50079 15.0146 3.54972C14.2539 2.59864 13.289 1.83075 12.1914 1.30287C11.0939 0.774978 9.89166 0.500591 8.67374 0.5H8.67249ZM1.79749 8.625C1.79805 7.12679 2.288 5.66976 3.1928 4.47562C4.09759 3.28147 5.36771 2.41557 6.80989 2.00967C8.25207 1.60377 9.78737 1.68008 11.1822 2.227C12.577 2.77392 13.755 3.7615 14.5369 5.03948C15.3188 6.31747 15.6619 7.8159 15.5139 9.30678C15.3658 10.7977 14.7349 12.1994 13.7169 13.2987C12.699 14.398 11.3498 15.1346 9.87467 15.3966C8.39954 15.6586 6.87921 15.4316 5.54499 14.75L5.32749 14.6375L1.75249 15.6388L2.96374 12.4688L2.80374 12.2062C2.14392 11.1284 1.79562 9.88879 1.79749 8.625ZM12.3762 20.5C11.2067 20.5013 10.0506 20.2495 8.98755 19.7618C7.92446 19.2742 6.97948 18.5623 6.21749 17.675C6.92124 17.8662 7.65874 17.9762 8.41749 17.9963C9.57503 18.8138 10.9578 19.2519 12.375 19.25C13.5025 19.25 14.565 18.9788 15.5025 18.5L15.72 18.3875L19.295 19.3888L18.0837 16.2188L18.2437 15.9562C18.8812 14.9137 19.25 13.6888 19.25 12.375C19.2519 10.9869 18.8317 9.63112 18.045 8.4875C18.0347 7.74387 17.9361 7.0041 17.7512 6.28375C18.6161 7.0453 19.3086 7.98252 19.7826 9.03289C20.2566 10.0833 20.5012 11.2226 20.5 12.375C20.5 13.8138 20.125 15.1663 19.4687 16.34L20.4625 18.9425C20.5452 19.1588 20.5662 19.3939 20.5231 19.6215C20.48 19.849 20.3745 20.0602 20.2185 20.2313C20.0624 20.4024 19.8618 20.5268 19.6392 20.5906C19.4165 20.6544 19.1805 20.655 18.9575 20.5925L15.8487 19.7213C14.795 20.2213 13.6162 20.5 12.3737 20.5H12.3762Z" fill="white"/>
</svg>
