<svg width="23" height="23" viewBox="0 0 23 23" fill="none" xmlns="http://www.w3.org/2000/svg">
<path d="M9.9375 3.6875C9.9375 2.77582 9.57533 1.90148 8.93068 1.25682C8.28602 0.612164 7.41168 0.25 6.5 0.25C5.58832 0.25 4.71398 0.612164 4.06932 1.25682C3.42466 1.90148 3.0625 2.77582 3.0625 3.6875C3.0625 4.59918 3.42466 5.47352 4.06932 6.11818C4.71398 6.76284 5.58832 7.125 6.5 7.125C7.41168 7.125 8.28602 6.76284 8.93068 6.11818C9.57533 5.47352 9.9375 4.59918 9.9375 3.6875ZM4.3125 3.6875C4.3125 3.40023 4.36908 3.11578 4.47901 2.85038C4.58894 2.58498 4.75007 2.34383 4.9532 2.1407C5.15633 1.93758 5.39748 1.77645 5.66288 1.66651C5.92828 1.55658 6.21273 1.5 6.5 1.5C6.78727 1.5 7.07172 1.55658 7.33712 1.66651C7.60252 1.77645 7.84367 1.93758 8.04679 2.1407C8.24992 2.34383 8.41105 2.58498 8.52098 2.85038C8.63092 3.11578 8.6875 3.40023 8.6875 3.6875C8.6875 4.26766 8.45703 4.82406 8.04679 5.23429C7.63656 5.64453 7.08016 5.875 6.5 5.875C5.91984 5.875 5.36344 5.64453 4.9532 5.23429C4.54297 4.82406 4.3125 4.26766 4.3125 3.6875ZM2.125 8.375H7.35375C7.14875 8.7625 6.99625 9.1825 6.90625 9.625H2.125C1.95924 9.625 1.80027 9.69085 1.68306 9.80806C1.56585 9.92527 1.5 10.0842 1.5 10.25V10.875C1.5 12.45 2.87375 14.1425 5.37 14.5375C4.9675 14.8125 4.6325 15.1787 4.39375 15.605C1.75625 14.8912 0.25 12.8587 0.25 10.875V10.25C0.25 9.75272 0.447544 9.2758 0.799175 8.92417C1.15081 8.57254 1.62772 8.375 2.125 8.375ZM8.84875 8.375C9.47875 7.6125 10.4325 7.125 11.5 7.125C12.2486 7.12369 12.977 7.36732 13.5742 7.81871C14.1714 8.27009 14.6045 8.90445 14.8075 9.625C14.9884 10.2681 14.9782 10.95 14.7782 11.5874C14.5781 12.2248 14.1968 12.7903 13.6808 13.2146C13.1649 13.639 12.5365 13.9041 11.8725 13.9774C11.2084 14.0507 10.5374 13.9291 9.94125 13.6275C9.48227 13.3939 9.08164 13.0602 8.76897 12.6509C8.4563 12.2417 8.23958 11.7674 8.13482 11.2632C8.03006 10.759 8.03994 10.2376 8.16372 9.73771C8.28751 9.2378 8.52205 8.77209 8.85 8.375H8.84875ZM9.52375 9.625C9.40063 9.88469 9.32987 10.1661 9.31551 10.4531C9.30115 10.7402 9.34346 11.0272 9.44003 11.2979C9.5366 11.5686 9.68555 11.8176 9.87836 12.0307C10.0712 12.2438 10.3041 12.4169 10.5637 12.54C10.8234 12.6631 11.1048 12.7339 11.3919 12.7482C11.6789 12.7626 11.966 12.7203 12.2366 12.6237C12.5073 12.5271 12.7563 12.3782 12.9695 12.1854C13.1826 11.9926 13.3556 11.7597 13.4787 11.5C13.7274 10.9754 13.7574 10.3735 13.5623 9.82667C13.3671 9.27988 12.9628 8.83301 12.4381 8.58437C11.9135 8.33573 11.3116 8.30569 10.7648 8.50084C10.218 8.696 9.77114 9.10037 9.5225 9.625H9.52375ZM18.6062 15.605C18.3682 15.1785 18.0339 14.8134 17.63 14.5387C20.125 14.1425 21.5 12.4487 21.5 10.875V10.25C21.5 10.0842 21.4341 9.92527 21.3169 9.80806C21.1997 9.69085 21.0408 9.625 20.875 9.625H16.0937C16.0054 9.18916 15.8552 8.76822 15.6475 8.375H20.875C21.3723 8.375 21.8492 8.57254 22.2008 8.92417C22.5525 9.2758 22.75 9.75272 22.75 10.25V10.875C22.75 12.8587 21.2425 14.89 18.6062 15.605ZM17.1087 15.7137C16.7787 15.425 16.3475 15.25 15.875 15.25H7.125C6.87859 15.2493 6.63447 15.2974 6.40669 15.3914C6.1789 15.4854 5.97194 15.6235 5.7977 15.7977C5.62346 15.9719 5.48537 16.1789 5.39138 16.4067C5.29739 16.6345 5.24934 16.8786 5.25 17.125V17.75C5.25 20.2137 7.575 22.75 11.5 22.75C15.425 22.75 17.75 20.2137 17.75 17.75V17.125C17.75 16.5625 17.5025 16.0575 17.1087 15.7125V15.7137ZM6.5 17.125C6.5 16.9592 6.56585 16.8003 6.68306 16.6831C6.80027 16.5658 6.95924 16.5 7.125 16.5H15.875C16.0408 16.5 16.1997 16.5658 16.3169 16.6831C16.4341 16.8003 16.5 16.9592 16.5 17.125V17.75C16.5 19.5475 14.71 21.5 11.5 21.5C8.29 21.5 6.5 19.5475 6.5 17.75V17.125ZM16.5 0.25C17.4117 0.25 18.286 0.612164 18.9307 1.25682C19.5753 1.90148 19.9375 2.77582 19.9375 3.6875C19.9375 4.59918 19.5753 5.47352 18.9307 6.11818C18.286 6.76284 17.4117 7.125 16.5 7.125C15.5883 7.125 14.714 6.76284 14.0693 6.11818C13.4247 5.47352 13.0625 4.59918 13.0625 3.6875C13.0625 2.77582 13.4247 1.90148 14.0693 1.25682C14.714 0.612164 15.5883 0.25 16.5 0.25ZM16.5 1.5C15.9198 1.5 15.3634 1.73047 14.9532 2.1407C14.543 2.55094 14.3125 3.10734 14.3125 3.6875C14.3125 4.26766 14.543 4.82406 14.9532 5.23429C15.3634 5.64453 15.9198 5.875 16.5 5.875C17.0802 5.875 17.6366 5.64453 18.0468 5.23429C18.457 4.82406 18.6875 4.26766 18.6875 3.6875C18.6875 3.10734 18.457 2.55094 18.0468 2.1407C17.6366 1.73047 17.0802 1.5 16.5 1.5Z" fill="white"/>
</svg>
