<svg viewBox="0 0 315 233" fill="none" xmlns="http://www.w3.org/2000/svg">
<g clip-path="url(#clip0_1468_8053)">
<path d="M91.4105 170.892H261.042C262.554 170.89 264.003 170.289 265.072 169.219C266.14 168.15 266.742 166.7 266.743 165.188V26.9795C266.742 25.4672 266.14 24.0173 265.072 22.9479C264.003 21.8785 262.554 21.2769 261.042 21.2751H91.4105C89.8991 21.2769 88.45 21.8785 87.3813 22.9479C86.3125 24.0173 85.7113 25.4672 85.7096 26.9795V165.188C85.7113 166.7 86.3125 168.15 87.3813 169.219C88.45 170.289 89.8991 170.89 91.4105 170.892Z" fill="#E6E6E6"/>
<path d="M257.196 25.3354C258.652 25.3371 260.048 25.9166 261.077 26.9468C262.107 27.9769 262.686 29.3736 262.688 30.8304V161.34C262.686 162.797 262.107 164.193 261.077 165.223C260.048 166.254 258.652 166.833 257.196 166.835H141.09C127.482 166.819 114.436 161.404 104.814 151.776C95.1922 142.148 89.7798 129.094 89.7644 115.478V30.8304C89.766 29.3736 90.3451 27.9769 91.3746 26.9468C92.4041 25.9166 93.7999 25.3372 95.2558 25.3355L257.196 25.3354Z" fill="white"/>
<path d="M122.343 84.0314H153.101C153.743 84.0307 154.358 83.7754 154.811 83.3215C155.265 82.8676 155.52 82.2522 155.521 81.6103V66.2921C155.52 65.6502 155.265 65.0348 154.811 64.5809C154.358 64.127 153.743 63.8717 153.101 63.871H122.343C121.702 63.8717 121.087 64.127 120.633 64.5809C120.179 65.0348 119.924 65.6502 119.923 66.2921C118.02 71.7128 117.75 76.8636 119.923 81.6103C119.924 82.2522 120.179 82.8676 120.633 83.3215C121.087 83.7754 121.702 84.0307 122.343 84.0314Z" fill="#E6E6E6"/>
<path d="M125.987 82.551H152.119C152.664 82.5504 153.187 82.3335 153.572 81.9478C153.958 81.5622 154.174 81.0394 154.175 80.494V67.4796C154.174 66.9342 153.958 66.4114 153.572 66.0257C153.187 65.6401 152.664 65.4232 152.119 65.4226H125.987C125.442 65.4232 124.919 65.6401 124.534 66.0257C124.149 66.4114 123.932 66.9342 123.931 67.4796C122.168 72.1145 121.884 76.5004 123.931 80.494C123.932 81.0394 124.149 81.5622 124.534 81.9478C124.919 82.3335 125.442 82.5504 125.987 82.551Z" fill="white"/>
<path d="M127.396 92.0556H148.116C148.726 92.0565 149.311 91.8151 149.742 91.3846C150.174 90.9541 150.417 90.3696 150.418 89.7597C150.42 89.1498 150.179 88.5644 149.748 88.1323C149.318 87.7001 148.734 87.4566 148.125 87.4552H127.396C126.787 87.4564 126.204 87.6992 125.773 88.1305C125.343 88.5617 125.102 89.1461 125.102 89.7554C125.102 90.3647 125.343 90.9491 125.773 91.3804C126.204 91.8116 126.787 92.0545 127.396 92.0556Z" fill="#E6E6E6"/>
<path d="M141.328 68.9368C141.566 68.9376 141.794 69.0328 141.963 69.2016C142.131 69.3703 142.226 69.599 142.226 69.8375V79.5875C142.226 79.7449 142.185 79.8996 142.107 80.0361C142.028 80.1726 141.915 80.286 141.779 80.3651C141.643 80.4442 141.489 80.4862 141.331 80.4868C141.174 80.4875 141.019 80.4467 140.883 80.3687L132.282 75.4618C132.144 75.383 132.029 75.269 131.949 75.1313C131.869 74.9936 131.828 74.8372 131.828 74.6781C131.828 74.5189 131.871 74.3628 131.952 74.2255C132.032 74.0883 132.148 73.9749 132.286 73.8969L140.886 69.0535C141.021 68.9772 141.173 68.937 141.328 68.9368Z" fill="#E6E6E6"/>
<path d="M15.8501 214.346C16.3244 213.742 16.9686 213.294 17.6995 213.061C18.4305 212.827 19.2147 212.818 19.9509 213.034L20.112 213.082L21.556 218.723C21.7724 217.882 22.2353 215.984 22.5272 214.127L22.5523 213.973L22.6957 214.036C24.2054 214.704 25.6247 215.56 26.9198 216.584C29.2144 218.425 31.0805 220.745 32.3887 223.381C33.6969 226.017 34.4157 228.907 34.4951 231.849L34.4976 231.957L34.5001 232.025L34.3089 231.957L30.2056 230.49C28.3888 230.65 26.5592 230.402 24.8504 229.764C23.1416 229.127 21.5966 228.115 20.3283 226.804C18.6703 225.055 17.5332 222.804 16.4338 220.626C16.1117 219.992 15.7821 219.338 15.445 218.708C15.0689 218.024 14.9065 217.242 14.9787 216.465C15.0509 215.687 15.3544 214.949 15.8501 214.346Z" fill="#F2F2F2"/>
<path d="M120.638 70.4808C120.556 70.9079 120.381 71.3117 120.126 71.6638C119.87 72.0159 119.541 72.3077 119.161 72.5187C118.781 72.7297 118.359 72.8548 117.926 72.8851C117.492 72.9153 117.057 72.8501 116.651 72.694L104.388 86.969L102.835 81.6993L114.993 68.6392C115.301 67.9746 115.841 67.4458 116.512 67.1531C117.183 66.8604 117.937 66.8241 118.633 67.0512C119.329 67.2782 119.918 67.7527 120.287 68.3848C120.657 69.0169 120.781 69.7627 120.638 70.4808L120.638 70.4808Z" fill="#FFB8B8"/>
<path d="M71.213 228.545H75.2713L77.2021 212.881H71.2121L71.213 228.545Z" fill="#FFB6B6"/>
<path d="M71.3212 227.218L75.6544 225.455L75.7785 225.404L78.171 227.218C79.5218 227.218 80.8173 227.756 81.7725 228.711C82.7277 229.667 83.2644 230.963 83.2646 232.315V232.48H70.179V227.218H71.3212Z" fill="#676666"/>
<path d="M42.2612 228.545H46.3196L48.2504 212.881H42.2603L42.2612 228.545Z" fill="#FFB6B6"/>
<path d="M42.3695 227.218L46.7027 225.455L46.8268 225.404L49.2192 227.218C50.5701 227.218 51.8656 227.756 52.8207 228.711C53.7759 229.667 54.3126 230.963 54.3129 232.315V232.48H41.2273V227.218H42.3695Z" fill="#676666"/>
<path d="M51.8396 135.008C51.8396 135.008 46.7492 140.307 46.7492 144.661C46.7492 149.015 48.0218 154.994 46.7492 156.302C45.4766 157.611 43.8858 159.202 45.7947 161.112C47.7036 163.023 48.6581 163.978 47.3855 165.251C46.1129 166.524 46.7492 188.808 46.7492 188.808L40.068 218.733H48.4853L59.1571 188.808L62.0205 163.978L71.2807 187.853L70.2583 218.989L79.0579 218.733L82.7003 185.625C82.7003 185.625 77.2918 154.131 78.2462 153.324C79.2006 152.517 78.2462 150.888 78.2462 150.888L75.701 138.828L51.8396 135.008Z" fill="#676666"/>
<path d="M61.8062 97.4374C61.8062 97.4374 60.0753 90.6128 68.0495 88.6561C76.0238 86.6994 98.8182 84.1855 98.8182 84.1855L110.338 71.9543L114.241 77.6265L101.327 93.6839L70.7291 99.9727L61.8062 97.4374Z" fill="#676666"/>
<path d="M112.344 77.2084C111.986 76.7446 111.706 76.2257 111.515 75.672L109.863 71.6101L110.292 71.5923C110.886 71.4805 111.496 71.4956 112.083 71.6363C112.67 71.7771 113.221 72.0405 113.699 72.4092C114.178 72.7778 114.573 73.2435 114.859 73.7757C115.145 74.3078 115.315 74.8944 115.359 75.497C115.413 76.0183 115.32 76.5443 115.089 77.0148C114.972 77.2481 114.801 77.4503 114.59 77.6047C114.38 77.7592 114.136 77.8616 113.878 77.9035C113.585 77.9192 113.293 77.8642 113.026 77.7432C112.759 77.6222 112.525 77.4388 112.344 77.2084Z" fill="#E6E6E6"/>
<path d="M77.3256 140.455L78.28 147.378C78.28 147.378 76.3711 149.429 75.4167 149.173C74.4622 148.916 70.9625 147.424 70.9625 147.424C70.9625 147.424 66.8266 149.686 64.5995 149.942C62.3725 150.198 50.6009 148.66 50.2827 147.891C49.9646 147.122 46.2667 144.11 46.2667 144.11L47.7375 135.327L77.3256 140.455Z" fill="#E6E6E6"/>
<path d="M46.3281 116.236C46.3281 116.236 47.1362 122.911 46.4999 123.526C45.8636 124.137 47.1362 128.005 48.4088 130.551C49.6814 133.098 47.4544 133.417 47.4544 135.327C47.4544 137.237 46.4999 144.24 46.4999 144.24C46.4999 144.24 56.3626 144.877 57.9533 143.285C59.5441 141.694 62.0893 142.967 65.589 146.469C69.0886 149.97 76.6892 147.105 78.28 145.514C79.8708 143.922 77.0424 138.192 76.0879 137.081C75.1335 135.97 77.0074 137.256 77.9619 133.735C78.9163 130.214 77.0424 130.551 75.4517 128.96C73.8609 127.368 75.4517 124.503 76.7243 121.638C77.9969 118.773 77.0424 97.4437 77.0424 92.3502C77.0424 87.2567 70.0431 86.62 70.0431 86.62L67.272 83.1342L65.2358 80.5715L61.2462 80.4123L61.1413 80.4092L57.2821 80.2532L55.4082 82.437L51.2722 87.2568L46.4999 88.2118C42.6821 89.4852 43.6366 97.4437 43.6366 97.4437L46.3281 116.236Z" fill="#676666"/>
<path d="M61.4431 79.0314C56.9264 79.0314 53.2649 75.3677 53.2649 70.8483C53.2649 66.3289 56.9264 62.6652 61.4431 62.6652C65.9598 62.6652 69.6212 66.3289 69.6212 70.8483C69.6212 75.3677 65.9598 79.0314 61.4431 79.0314Z" fill="#FFB6B6"/>
<path d="M51.9607 68.0955C54.2101 66.7151 53.9218 63.106 56.0892 61.8457C57.1664 61.2244 58.3777 60.8726 59.62 60.8204C60.8622 60.7682 62.0987 61.0171 63.2242 61.5459C64.7507 60.8924 66.5796 61.4139 67.8008 62.5939C69.0221 63.774 69.6832 65.5148 69.878 67.2655C70.0188 69.0245 69.8926 70.7947 69.5036 72.5159C69.3824 71.8243 69.2611 71.1328 69.1398 70.4413L62.6926 69.0313C63.2633 69.5444 63.8341 70.0575 64.4048 70.5706C61.4849 71.2358 58.4213 70.7564 55.8437 69.231C53.0371 70.4899 53.5458 73.3174 56.0095 77.0698C55.055 78.6615 49.3977 69.6683 51.9607 68.0955Z" fill="#676666"/>
<path d="M55.4081 82.437C55.4264 82.4519 55.4456 82.4657 55.4654 82.4784C56.1394 82.8806 56.9109 83.0898 57.6956 83.0833C58.7227 83.169 59.7425 82.8491 60.5367 82.1919C60.9535 81.7971 62.6111 82.6312 63.6991 83.0928C64.8404 83.5661 66.1201 83.5809 67.272 83.1342L65.2358 80.5715L61.88 79.827H61.0422L57.282 80.2532L55.4081 82.437Z" fill="#E6E6E6"/>
<path d="M0.496147 232.871L114.335 233C114.401 233 114.466 232.988 114.526 232.963C114.587 232.938 114.642 232.902 114.689 232.856C114.735 232.81 114.772 232.755 114.798 232.694C114.823 232.634 114.836 232.569 114.837 232.504C114.837 232.438 114.824 232.373 114.8 232.312C114.775 232.252 114.738 232.196 114.692 232.15C114.646 232.103 114.591 232.066 114.531 232.041C114.471 232.015 114.406 232.002 114.34 232.002H114.335L0.496147 231.873C0.364296 231.874 0.238068 231.927 0.145065 232.02C0.0520706 232.114 -0.0001297 232.24 -0.0001297 232.372C-0.0001297 232.504 0.0520706 232.631 0.145065 232.724C0.238068 232.818 0.364296 232.871 0.496147 232.871Z" fill="#CACACA"/>
<path d="M136.803 65.2613H137.64V5.30286H104.69V6.14118H136.803V65.2613Z" fill="#3F3D56"/>
<path d="M79.0643 0H101.267C102.711 0 104.096 0.574106 105.117 1.59602C106.139 2.61793 106.712 4.00393 106.712 5.44913C106.712 6.89433 106.139 8.28034 105.117 9.30226C104.096 10.3242 102.711 10.8983 101.267 10.8983H79.0643C77.62 10.8983 76.2348 10.3242 75.2135 9.30226C74.1922 8.28034 73.6185 6.89433 73.6185 5.44913C73.6185 4.00393 74.1922 2.61793 75.2135 1.59602C76.2348 0.574106 77.62 0 79.0643 0Z" fill="#FF6A00"/>
<path d="M137.708 70.7466C134.944 70.7466 132.703 68.5048 132.703 65.7393C132.703 62.9739 134.944 60.7321 137.708 60.7321C140.471 60.7321 142.712 62.9739 142.712 65.7393C142.712 68.5048 140.471 70.7466 137.708 70.7466Z" fill="#FF6A00"/>
<path d="M198.01 84.5547L176.057 79.4715L169.755 78.0124C168.967 77.8299 169.294 76.6156 170.083 76.7982L192.036 81.8815L198.338 83.3406C199.126 83.5231 198.799 84.7373 198.01 84.5547H198.01Z" fill="#F2F2F2"/>
<path d="M175.34 71.3166L163.588 76.7261C163.187 76.8649 162.811 77.0683 162.476 77.3285C162.151 77.6464 162.387 77.9522 162.652 78.2292C163.443 78.9683 164.278 79.6582 165.154 80.2951L170.161 84.3682C170.789 84.8796 169.902 85.7718 169.28 85.2653L164.919 81.7177L162.738 79.9439C162.12 79.4414 161.368 78.9285 161.12 78.128C160.599 76.4461 162.657 75.7773 163.801 75.2508L168.919 72.8951L174.7 70.234C175.429 69.8985 176.075 70.9786 175.34 71.3166Z" fill="#F2F2F2"/>
<path d="M13.1578 112.497C15.2515 111.076 17.7951 110.549 20.2813 110.37C23.1072 110.216 25.9394 110.219 28.765 110.38C31.7001 110.496 34.6292 110.708 37.5523 111.017C40.4714 111.326 43.3781 111.731 46.2726 112.232C48.8641 112.636 51.4286 113.198 53.9517 113.914C56.34 114.575 58.5895 115.662 60.5922 117.123C62.3503 118.446 63.7022 120.235 64.4944 122.289C65.2722 124.215 65.4044 126.341 64.8712 128.348C64.5871 129.323 64.1007 130.228 63.4438 131.002C62.6844 131.851 61.7849 132.564 60.7844 133.109C58.7074 134.295 56.3542 135.009 54.4756 136.528C53.9802 136.926 53.5287 137.375 53.1287 137.868C52.857 138.25 52.4815 138.545 52.0467 138.72C51.6348 138.864 51.1895 138.883 50.7669 138.774C50.3443 138.665 49.9634 138.433 49.6722 138.108C49.2959 137.593 48.9822 137.035 48.7377 136.446L47.7467 134.532C47.6804 134.365 47.5974 134.205 47.4989 134.054C47.4247 133.966 47.5574 134.056 47.5321 134.033C47.5182 134.02 47.4894 134.02 47.4735 134.01C47.3916 133.969 47.3059 133.936 47.2177 133.912C46.301 133.562 45.3802 133.223 44.4553 132.896C41.0415 131.678 37.5865 130.556 34.0771 129.647C32.2711 129.162 30.4396 128.779 28.5909 128.499C26.1965 128.157 23.7659 128.197 21.3606 127.964C18.771 127.713 16.0989 127.188 13.8782 125.761C12.0419 124.645 10.6273 122.951 9.85579 120.944C9.52134 119.988 9.40667 118.968 9.52028 117.961C9.80876 115.683 11.2962 113.76 13.1578 112.497Z" fill="#E6E6E6"/>
<path d="M17.4428 113.777C19.3348 112.493 21.6334 112.016 23.8801 111.854C26.4338 111.715 28.9933 111.718 31.5466 111.863C34.199 111.969 36.8459 112.161 39.4875 112.44C42.1254 112.719 44.7521 113.085 47.3678 113.538C49.7097 113.902 52.0271 114.41 54.3072 115.057C56.4654 115.655 58.4983 116.637 60.308 117.957C61.8967 119.153 63.1184 120.77 63.8344 122.626C64.5372 124.366 64.6567 126.287 64.1749 128.101C63.9181 128.982 63.4786 129.8 62.8849 130.499C62.1987 131.267 61.3858 131.911 60.4817 132.403C58.6048 133.476 56.4782 134.12 54.7806 135.493C54.333 135.852 53.9249 136.258 53.5634 136.704C53.3179 137.049 52.9785 137.316 52.5857 137.474C52.2134 137.604 51.811 137.621 51.4291 137.522C51.0472 137.424 50.703 137.215 50.4398 136.921C50.0998 136.455 49.8163 135.951 49.5954 135.419L48.6998 133.69C48.6399 133.538 48.5649 133.394 48.4759 133.257C48.4088 133.177 48.5288 133.259 48.5059 133.238C48.4933 133.226 48.4674 133.227 48.453 133.218C48.3789 133.181 48.3015 133.151 48.2217 133.129C47.3933 132.813 46.5613 132.507 45.7255 132.211C42.6405 131.11 39.5184 130.096 36.3469 129.275C34.715 128.837 33.0598 128.491 31.3893 128.237C29.2255 127.929 27.029 127.965 24.8555 127.754C22.5153 127.527 20.1006 127.053 18.0938 125.764C16.4343 124.755 15.156 123.224 14.4588 121.41C14.1566 120.546 14.053 119.625 14.1556 118.715C14.4164 116.656 15.7605 114.918 17.4428 113.777Z" fill="white"/>
<path d="M21.4057 116.095L52.238 121.785C52.3262 121.801 52.4168 121.801 52.5047 121.782C52.5925 121.764 52.676 121.729 52.7501 121.678C52.8243 121.627 52.8877 121.563 52.9368 121.488C52.986 121.412 53.0197 121.328 53.0363 121.24C53.0528 121.152 53.0518 121.061 53.0333 120.973C53.0147 120.885 52.979 120.802 52.9282 120.728C52.8774 120.654 52.8125 120.59 52.7372 120.542C52.6619 120.493 52.5777 120.459 52.4895 120.443L52.4854 120.442L21.6532 114.752C21.5651 114.736 21.4747 114.737 21.3871 114.756C21.2994 114.774 21.2164 114.81 21.1426 114.861C21.0688 114.912 21.0058 114.977 20.9571 115.052C20.9083 115.127 20.8749 115.211 20.8586 115.299C20.8424 115.388 20.8436 115.478 20.8623 115.566C20.881 115.653 20.9168 115.737 20.9676 115.81C21.0184 115.884 21.0833 115.947 21.1585 115.996C21.2336 116.045 21.3176 116.078 21.4057 116.095V116.095Z" fill="#E6E6E6"/>
<path d="M20.6462 120.215L51.4785 125.905C51.5666 125.922 51.6573 125.921 51.7451 125.903C51.833 125.884 51.9164 125.849 51.9905 125.798C52.0647 125.748 52.1281 125.683 52.1772 125.608C52.2263 125.533 52.2601 125.448 52.2766 125.36C52.2932 125.272 52.2922 125.181 52.2736 125.093C52.2551 125.005 52.2194 124.922 52.1686 124.848C52.1178 124.774 52.0529 124.711 51.9777 124.662C51.9024 124.613 51.8182 124.579 51.7299 124.563L51.7259 124.562L20.8937 118.872C20.8056 118.856 20.7151 118.857 20.6275 118.876C20.5399 118.895 20.4568 118.931 20.3831 118.981C20.3093 119.032 20.2462 119.097 20.1975 119.172C20.1488 119.247 20.1153 119.332 20.0991 119.42C20.0828 119.508 20.0841 119.598 20.1028 119.686C20.1215 119.774 20.1573 119.857 20.2081 119.931C20.2589 120.004 20.3237 120.068 20.3989 120.116C20.4741 120.165 20.5581 120.199 20.6462 120.215Z" fill="#E6E6E6"/>
<path d="M47.126 129.362L50.7191 130.025C50.8967 130.057 51.0798 130.017 51.2282 129.915C51.3767 129.812 51.4785 129.655 51.5112 129.477C51.5439 129.299 51.505 129.116 51.4029 128.967C51.3008 128.818 51.1439 128.716 50.9665 128.682L47.3735 128.019C47.1958 127.987 47.0125 128.027 46.8639 128.129C46.7153 128.232 46.6135 128.389 46.5807 128.567C46.548 128.745 46.587 128.928 46.6892 129.077C46.7914 129.226 46.9485 129.329 47.126 129.362Z" fill="#E6E6E6"/>
<path d="M49.729 146.491C48.1543 146.2 47.1132 144.687 47.4036 143.111C47.694 141.536 49.2061 140.494 50.7808 140.785C52.3555 141.075 53.3966 142.588 53.1062 144.164C52.8158 145.74 51.3038 146.781 49.729 146.491Z" fill="#D1D3D4"/>
<path d="M209.292 83.2555H235.627C236.85 83.254 238.022 82.7674 238.886 81.9024C239.751 81.0374 240.237 79.8647 240.238 78.6414V61.2743C240.237 60.0511 239.751 58.8783 238.886 58.0133C238.022 57.1483 236.85 56.6617 235.627 56.6603H209.292C208.069 56.6617 206.897 57.1483 206.033 58.0133C205.168 58.8783 204.682 60.0511 204.68 61.2743V78.6414C204.682 79.8647 205.168 81.0375 206.033 81.9025C206.897 82.7675 208.069 83.254 209.292 83.2555Z" fill="#E6E6E6"/>
<path d="M212.186 82.3198H235.106C236.17 82.3186 237.19 81.8951 237.942 81.1423C238.695 80.3894 239.118 79.3688 239.119 78.3041V63.1893C239.118 62.1246 238.695 61.104 237.942 60.3511C237.19 59.5983 236.17 59.1748 235.106 59.1736H212.186C211.122 59.1748 210.102 59.5983 209.349 60.3511C208.597 61.104 208.174 62.1246 208.172 63.1893V78.3041C208.174 79.3688 208.597 80.3895 209.349 81.1423C210.102 81.8951 211.122 82.3186 212.186 82.3198Z" fill="white"/>
<path d="M205.582 98.9021H239.374C239.583 98.9016 239.783 98.8183 239.93 98.6704C240.078 98.5225 240.161 98.3221 240.161 98.1132C240.161 97.9042 240.078 97.7038 239.93 97.5559C239.783 97.408 239.583 97.3247 239.374 97.3242H205.582C205.374 97.3247 205.173 97.408 205.026 97.5559C204.879 97.7038 204.796 97.9042 204.796 98.1132C204.796 98.3221 204.879 98.5225 205.026 98.6704C205.173 98.8183 205.374 98.9016 205.582 98.9021Z" fill="#E6E6E6"/>
<path d="M205.582 94.3938H239.374C239.583 94.3934 239.783 94.31 239.93 94.1621C240.078 94.0142 240.161 93.8138 240.161 93.6049C240.161 93.3959 240.078 93.1956 239.93 93.0476C239.783 92.8997 239.583 92.8164 239.374 92.8159H205.582C205.374 92.8164 205.173 92.8997 205.026 93.0476C204.879 93.1956 204.796 93.3959 204.796 93.6049C204.796 93.8138 204.879 94.0142 205.026 94.1621C205.173 94.31 205.374 94.3934 205.582 94.3938Z" fill="#E6E6E6"/>
<path d="M205.582 103.41H239.374C239.583 103.41 239.784 103.327 239.932 103.179C240.079 103.031 240.162 102.831 240.162 102.621C240.162 102.412 240.079 102.212 239.932 102.064C239.784 101.916 239.583 101.833 239.374 101.833H205.582C205.373 101.833 205.173 101.916 205.025 102.064C204.877 102.212 204.794 102.412 204.794 102.621C204.794 102.831 204.877 103.031 205.025 103.179C205.173 103.327 205.373 103.41 205.582 103.41Z" fill="#E6E6E6"/>
<path d="M205.582 107.919H239.374C239.583 107.919 239.784 107.835 239.932 107.688C240.079 107.54 240.162 107.339 240.162 107.13C240.162 106.92 240.079 106.72 239.932 106.572C239.784 106.424 239.583 106.341 239.374 106.341H205.582C205.373 106.341 205.173 106.424 205.025 106.572C204.877 106.72 204.794 106.92 204.794 107.13C204.794 107.339 204.877 107.54 205.025 107.688C205.173 107.835 205.373 107.919 205.582 107.919Z" fill="#E6E6E6"/>
<path d="M205.582 112.427H239.374C239.583 112.427 239.784 112.344 239.932 112.196C240.079 112.048 240.162 111.847 240.162 111.638C240.162 111.429 240.079 111.228 239.932 111.08C239.784 110.932 239.583 110.849 239.374 110.849H205.582C205.373 110.849 205.173 110.932 205.025 111.08C204.877 111.228 204.794 111.429 204.794 111.638C204.794 111.847 204.877 112.048 205.025 112.196C205.173 112.344 205.373 112.427 205.582 112.427Z" fill="#E6E6E6"/>
<path d="M205.582 116.935H239.374C239.583 116.935 239.783 116.851 239.93 116.703C240.078 116.556 240.161 116.355 240.161 116.146C240.161 115.937 240.078 115.737 239.93 115.589C239.783 115.441 239.583 115.358 239.374 115.357H205.582C205.374 115.358 205.173 115.441 205.026 115.589C204.879 115.737 204.796 115.937 204.796 116.146C204.796 116.355 204.879 116.556 205.026 116.703C205.173 116.851 205.374 116.935 205.582 116.935Z" fill="#E6E6E6"/>
<path d="M224.168 106.596H223.33V138.89H283.928V138.051H224.168V106.596Z" fill="#3F3D56"/>
<path d="M309.554 144.192H287.352C285.908 144.192 284.522 143.618 283.501 142.596C282.48 141.575 281.906 140.189 281.906 138.743C281.906 137.298 282.48 135.912 283.501 134.89C284.522 133.868 285.908 133.294 287.352 133.294H309.554C310.998 133.294 312.384 133.868 313.405 134.89C314.426 135.912 315 137.298 315 138.743C315 140.189 314.426 141.575 313.405 142.596C312.384 143.618 310.998 144.192 309.554 144.192Z" fill="#FF6A00"/>
<path d="M223.165 109.029C220.402 109.029 218.161 106.787 218.161 104.022C218.161 101.257 220.402 99.0148 223.165 99.0148C225.929 99.0148 228.17 101.257 228.17 104.022C228.17 106.787 225.929 109.029 223.165 109.029Z" fill="#FF6A00"/>
<path d="M197.3 105.414C189.953 106.976 191.821 107.281 184.474 108.843L178.148 110.189C177.356 110.357 177.14 109.118 177.931 108.95C185.278 107.387 183.41 107.082 190.757 105.52L197.083 104.175C197.875 104.006 198.091 105.245 197.3 105.414H197.3Z" fill="#F2F2F2"/>
<path d="M180.377 101.757L172.016 111.634C171.711 111.93 171.456 112.273 171.263 112.651C171.103 113.076 171.446 113.253 171.803 113.392C172.832 113.727 173.881 113.998 174.943 114.205L181.202 115.776C181.988 115.973 181.562 117.157 180.783 116.962L175.332 115.594L172.606 114.909C171.834 114.716 170.936 114.569 170.373 113.949C169.189 112.646 170.771 111.168 171.585 110.207L175.226 105.906L179.34 101.047C179.858 100.435 180.9 101.14 180.377 101.757V101.757Z" fill="#F2F2F2"/>
<path d="M153.865 144.811C147.438 144.811 142.228 139.597 142.228 133.166C142.228 126.735 147.438 121.522 153.865 121.522C160.292 121.522 165.502 126.735 165.502 133.166C165.502 139.597 160.292 144.811 153.865 144.811Z" fill="#E6E6E6"/>
<path d="M154.999 143.326C150.113 143.326 146.152 139.363 146.152 134.474C146.152 129.584 150.113 125.621 154.999 125.621C159.885 125.621 163.846 129.584 163.846 134.474C163.846 139.363 159.885 143.326 154.999 143.326Z" fill="white"/>
<path d="M156.587 140.534C156.788 140.534 156.986 140.487 157.166 140.397C157.345 140.307 157.502 140.177 157.622 140.016L160.797 135.78C160.899 135.644 160.973 135.489 161.016 135.325C161.058 135.16 161.067 134.988 161.043 134.82C161.019 134.652 160.963 134.49 160.876 134.343C160.789 134.197 160.675 134.069 160.539 133.967C160.403 133.865 160.248 133.79 160.084 133.748C159.919 133.706 159.748 133.696 159.579 133.72C159.411 133.744 159.249 133.801 159.103 133.888C158.957 133.974 158.829 134.089 158.727 134.225L158.726 134.226L156.649 136.997L151.314 128.99C151.22 128.848 151.099 128.726 150.957 128.632C150.816 128.537 150.658 128.471 150.491 128.437C150.324 128.404 150.152 128.403 149.985 128.436C149.818 128.469 149.66 128.535 149.518 128.629C149.376 128.724 149.255 128.845 149.16 128.987C149.066 129.128 149 129.287 148.966 129.454C148.933 129.621 148.933 129.793 148.966 129.96C149 130.127 149.065 130.286 149.16 130.427L155.51 139.957C155.624 140.13 155.779 140.272 155.96 140.372C156.141 140.473 156.344 140.528 156.551 140.534C156.563 140.534 156.575 140.534 156.587 140.534Z" fill="#E6E6E6"/>
<path d="M45.2004 145.162C44.8257 144.941 44.5039 144.641 44.2576 144.283C44.0113 143.925 43.8465 143.517 43.7749 143.088C43.7032 142.659 43.7265 142.219 43.8429 141.8C43.9594 141.381 44.1663 140.993 44.449 140.662L35.1049 124.324L40.5874 124.622L48.8224 140.455C49.3456 140.967 49.6629 141.653 49.7143 142.384C49.7656 143.114 49.5473 143.838 49.1008 144.418C48.6544 144.998 48.0107 145.395 47.2919 145.532C46.573 145.669 45.8288 145.537 45.2004 145.162H45.2004Z" fill="#FFB8B8"/>
<path d="M55.7251 87.8935C55.7251 87.8935 45.8286 84.71 43.2834 92.3503C40.7382 99.9905 32.1819 120.683 32.1819 120.683L41.3745 139.465L45.5104 135.008L41.0901 121.956L53.8162 102.856L55.7251 87.8935Z" fill="#676666"/>
<path d="M41.0592 137.547C41.3571 137.043 41.735 136.59 42.178 136.207L45.3358 133.166L45.5114 133.558C45.835 134.068 46.0473 134.641 46.1343 135.239C46.2214 135.837 46.1811 136.446 46.0163 137.028C45.8514 137.609 45.5657 138.149 45.1777 138.612C44.7898 139.075 44.3085 139.45 43.7653 139.714C43.3015 139.958 42.7787 140.066 42.2564 140.026C41.9964 140.004 41.7454 139.92 41.5239 139.781C41.3025 139.643 41.117 139.454 40.9826 139.23C40.8596 138.964 40.8024 138.672 40.8157 138.379C40.829 138.086 40.9125 137.801 41.0592 137.547Z" fill="#E6E6E6"/>
<path d="M153.966 148.832H154.804V181.125H126.461V180.287H153.966V148.832Z" fill="#3F3D56"/>
<path d="M95.3896 180.979C95.391 179.534 95.9652 178.149 96.9861 177.128C98.0071 176.106 99.3915 175.531 100.835 175.53H123.038C124.482 175.53 125.867 176.104 126.888 177.126C127.91 178.148 128.484 179.534 128.484 180.979C128.484 182.424 127.91 183.81 126.888 184.832C125.867 185.854 124.482 186.428 123.038 186.428H100.835C99.3915 186.427 98.0071 185.852 96.9861 184.831C95.9652 183.809 95.391 182.424 95.3896 180.979Z" fill="#FF6A00"/>
<path d="M154.968 151.265C152.204 151.265 149.964 149.023 149.964 146.258C149.964 143.493 152.204 141.251 154.968 141.251C157.732 141.251 159.972 143.493 159.972 146.258C159.972 149.023 157.732 151.265 154.968 151.265Z" fill="#FF6A00"/>
</g>
<defs>
<clipPath id="clip0_1468_8053">
<rect width="315" height="233" fill="white" transform="matrix(-1 0 0 1 315 0)"/>
</clipPath>
</defs>
</svg>
