<svg width="30" height="20" viewBox="0 0 30 20" fill="none" xmlns="http://www.w3.org/2000/svg">
<path d="M29.9999 3.31846C30.0009 3.74538 29.9303 4.1672 29.7931 4.55292C29.6559 4.93865 29.4557 5.27847 29.2071 5.54743L16.3511 19.3499C15.9677 19.7702 15.4868 20 14.9906 20C14.4943 20 14.0134 19.7702 13.63 19.3499L0.774039 5.06163C0.336473 4.57658 0.061304 3.87956 0.00906664 3.12392C-0.0431707 2.36828 0.131803 1.61592 0.495494 1.03233C0.859185 0.448751 1.3818 0.0817604 1.94838 0.0120907C2.51495 -0.0575771 3.07907 0.175783 3.51664 0.660837L15.0013 13.4346L26.4859 1.08949C26.8004 0.740044 27.1834 0.51807 27.5895 0.449831C27.9957 0.381592 28.408 0.46994 28.7776 0.704428C29.1473 0.938915 29.4589 1.30972 29.6755 1.77298C29.8921 2.23624 30.0046 2.77255 29.9999 3.31846Z" fill="#676767"/>
</svg>
